<?xml version="1.0" encoding="utf-8"?>
<!-- Generator: Adobe Illustrator 15.1.0, SVG Export Plug-In . SVG Version: 6.00 Build 0)  -->
<!DOCTYPE svg PUBLIC "-//W3C//DTD SVG 1.1//EN" "http://www.w3.org/Graphics/SVG/1.1/DTD/svg11.dtd">
<svg version="1.1" id="Layer_1" xmlns="http://www.w3.org/2000/svg" xmlns:xlink="http://www.w3.org/1999/xlink" x="0px" y="0px"
	 width="166.935px" height="38.338px" viewBox="0 0 166.935 38.338" enable-background="new 0 0 166.935 38.338"
	 xml:space="preserve">
<g>
	<path fill-rule="evenodd" clip-rule="evenodd" fill="#FFFFFF" d="M1,0.577c0,0,0,6.216,0,15.848
		c0,14.27,15.582,21.914,15.582,21.914s15.64-7.644,15.64-21.914c0-9.632,0-15.848,0-15.848H1z M9.553,10.54h2.805l0.004,11.726
		H9.55L9.553,10.54z M17.992,7.428L17.991,25.39c0,2.329-1.886,3.534-4.213,3.534c-2.326,0-4.229-1.017-4.229-2.994h0.002
		c0-0.776,0.629-1.406,1.405-1.406c0.775,0,1.404,0.629,1.404,1.406h0.001c0,1.436,0.115,2.41,1.417,2.41c1.4,0,1.4-0.979,1.4-2.95
		l0-17.961c0-2.327,1.886-3.534,4.213-3.534c2.326,0,4.229,1.017,4.229,2.994h-0.002c0,0.776-0.629,1.405-1.406,1.405
		c-0.775,0-1.403-0.629-1.403-1.405h-0.002c0-1.435-0.114-2.409-1.416-2.409C17.991,4.479,17.992,5.456,17.992,7.428z M24.921,12.5
		h-1.3v9.773h-2.813V12.5H19.51v-1.96h5.411V12.5z"/>
	<g>
		<path fill="#FFFFFF" d="M46.372,12.526h-3.319v-1.951h8.887v1.951h-3.319v9.755h-2.249V12.526z"/>
		<path fill="#FFFFFF" d="M53.458,10.575h7.28v1.951h-5.032v2.831h4.64v1.95h-4.64v3.024h5.032v1.95h-7.28V10.575z M55.938,8.624
			c0.838-0.51,1.659-1.019,2.374-1.564l0.838,1.3c-0.803,0.58-1.463,0.967-2.427,1.459L55.938,8.624z"/>
		<path fill="#FFFFFF" d="M62.523,13.792c0-2.145,1.267-3.392,4.229-3.392c1.107,0,2.249,0.141,3.231,0.387l-0.25,1.916
			c-0.964-0.176-2.088-0.298-2.91-0.298c-1.552,0-2.052,0.527-2.052,1.775v4.5c0,1.247,0.5,1.774,2.052,1.774
			c0.822,0,1.946-0.122,2.91-0.299l0.25,1.916c-0.982,0.247-2.124,0.387-3.231,0.387c-2.962,0-4.229-1.248-4.229-3.393V13.792z"/>
		<path fill="#FFFFFF" d="M74.052,13.405v8.876h-2.195V10.575h2.998l4.515,8.894v-8.894h2.195v11.706h-2.998L74.052,13.405z"/>
		<path fill="#FFFFFF" d="M86.313,22.281h-2.249V10.575h2.249V22.281z"/>
		<path fill="#FFFFFF" d="M88.545,13.792c0-2.145,1.267-3.392,4.229-3.392c1.106,0,2.249,0.141,3.23,0.387l-0.25,1.916
			c-0.963-0.176-2.087-0.298-2.909-0.298c-1.552,0-2.053,0.527-2.053,1.775v4.5c0,1.247,0.5,1.774,2.053,1.774
			c0.821,0,1.945-0.122,2.909-0.299l0.25,1.916c-0.981,0.247-2.124,0.387-3.23,0.387c-2.962,0-4.229-1.248-4.229-3.393V13.792z"/>
		<path fill="#FFFFFF" d="M106.337,18.854c0,1.951-1.142,3.603-4.497,3.603c-3.355,0-4.497-1.652-4.497-3.603v-4.851
			c0-1.952,1.142-3.604,4.497-3.604c3.355,0,4.497,1.652,4.497,3.604V18.854z M99.591,18.73c0,1.107,0.571,1.775,2.249,1.775
			c1.678,0,2.249-0.668,2.249-1.775v-4.605c0-1.106-0.571-1.775-2.249-1.775c-1.677,0-2.249,0.668-2.249,1.775V18.73z"/>
		<path fill="#FFFFFF" d="M113.458,21.35h5.354v0.931h-6.406V10.575h1.052V21.35z"/>
		<path fill="#FFFFFF" d="M122.258,22.281h-1.053V10.575h1.053V22.281z"/>
		<path fill="#FFFFFF" d="M128.54,22.457c-1.035,0-2.338-0.176-3.355-0.563l0.197-0.844c1.07,0.317,2.159,0.476,3.195,0.476
			c2.034,0,2.587-0.598,2.587-2.092c0-1.81-0.018-2.004-2.659-2.602c-2.873-0.65-3.194-1.16-3.194-3.515
			c0-1.917,0.713-2.918,3.693-2.918c1.036,0,2.267,0.175,3.07,0.404l-0.125,0.879c-0.874-0.193-1.98-0.352-2.909-0.352
			c-2.355,0-2.677,0.562-2.677,2.021c0,1.898,0.053,1.986,2.552,2.602c3.123,0.773,3.301,1.212,3.301,3.428
			C132.216,21.297,131.555,22.457,128.54,22.457z"/>
		<path fill="#FFFFFF" d="M135.054,22.281V10.575h4.462c1.605,0,2.551,0.756,2.551,2.302v1.407c0,0.932-0.392,1.547-1.356,1.898
			c0.928,0.123,1.731,0.879,1.731,2.179v1.529c0,1.617-1.196,2.39-2.73,2.39H135.054z M141.014,12.737
			c0-0.809-0.463-1.248-1.48-1.248h-3.427v4.341h3.07c1.303,0,1.837-0.667,1.837-1.6V12.737z M141.389,18.396
			c0-0.984-0.588-1.652-1.962-1.652h-3.32v4.623h3.623c1.125,0,1.66-0.544,1.66-1.476V18.396z"/>
		<path fill="#FFFFFF" d="M148.813,22.457c-3.051,0-4.158-1.477-4.158-3.48v-5.097c0-2.004,1.106-3.48,4.158-3.48
			c3.052,0,4.159,1.476,4.159,3.48v5.097C152.972,20.98,151.865,22.457,148.813,22.457z M151.918,18.941v-5.026
			c0-1.67-0.82-2.583-3.105-2.583c-2.284,0-3.104,0.914-3.104,2.583v5.026c0,1.67,0.82,2.584,3.104,2.584
			C151.098,21.525,151.918,20.611,151.918,18.941z"/>
		<path fill="#FFFFFF" d="M162.323,19.205h-5.532l-1.106,3.076h-1.036l4.141-11.706h1.552l4.141,11.706h-1.035L162.323,19.205z
			 M157.112,18.309h4.89l-2.445-7.136L157.112,18.309z"/>
	</g>
</g>
</svg>
