<?xml version="1.0" encoding="utf-8"?>
<!-- Generator: Adobe Illustrator 15.1.0, SVG Export Plug-In . SVG Version: 6.00 Build 0)  -->
<!DOCTYPE svg PUBLIC "-//W3C//DTD SVG 1.1//EN" "http://www.w3.org/Graphics/SVG/1.1/DTD/svg11.dtd">
<svg version="1.1" id="Layer_1" xmlns="http://www.w3.org/2000/svg" xmlns:xlink="http://www.w3.org/1999/xlink" x="0px" y="0px"
	 width="250px" height="50.167px" viewBox="0 0 250 50.167" enable-background="new 0 0 250 50.167" xml:space="preserve">
<g>
	<g>
		<path fill="#CCCCCC" d="M74.934,19.333v24.438h-3.156V19.333H74.934z"/>
		<path fill="#CCCCCC" d="M80.689,30.972c0-1.814-0.034-3.303-0.146-4.749h2.829l0.182,2.899h0.069
			c0.869-1.67,2.898-3.303,5.798-3.303c2.434,0,6.201,1.453,6.201,7.467v10.484h-3.191V33.648c0-2.822-1.049-5.18-4.06-5.18
			c-2.1,0-3.733,1.486-4.275,3.262c-0.146,0.395-0.216,0.944-0.216,1.486v10.555h-3.191V30.972z"/>
		<path fill="#CCCCCC" d="M104.501,21.183v5.04h4.567v2.427h-4.567v9.463c0,2.168,0.612,3.405,2.392,3.405
			c0.834,0,1.446-0.11,1.85-0.223l0.146,2.392c-0.618,0.252-1.599,0.445-2.829,0.445c-1.488,0-2.684-0.473-3.441-1.35
			c-0.911-0.932-1.237-2.502-1.237-4.574V28.65H98.67v-2.428h2.712v-4.206L104.501,21.183z"/>
		<path fill="#CCCCCC" d="M114.213,35.568c0.07,4.311,2.823,6.09,6.014,6.09c2.28,0,3.657-0.39,4.86-0.903l0.542,2.294
			c-1.126,0.501-3.045,1.085-5.84,1.085c-5.395,0-8.621-3.56-8.621-8.845c0-5.297,3.115-9.469,8.225-9.469
			c5.729,0,7.251,5.041,7.251,8.273c0,0.641-0.076,1.154-0.111,1.475H114.213z M123.564,33.287c0.034-2.03-0.835-5.18-4.422-5.18
			c-3.226,0-4.645,2.969-4.895,5.18H123.564z"/>
		<path fill="#CCCCCC" d="M130.586,18.027h3.189v25.744h-3.189V18.027z"/>
		<path fill="#CCCCCC" d="M139.13,18.027h3.198v25.744h-3.198V18.027z"/>
		<path fill="#CCCCCC" d="M151.24,21.287c0.042,1.091-0.766,1.96-2.016,1.96c-1.142,0-1.934-0.869-1.934-1.96
			c0-1.119,0.834-1.988,1.988-1.988C150.477,19.299,151.24,20.168,151.24,21.287z M147.695,43.771V26.223h3.184v17.548H147.695z"/>
		<path fill="#CCCCCC" d="M161.279,19.333h3.156v16.345c0,6.479-3.197,8.481-7.396,8.481c-1.168,0-2.572-0.25-3.365-0.584
			l0.473-2.559c0.641,0.25,1.586,0.458,2.643,0.458c2.822,0,4.49-1.265,4.49-6.048V19.333L161.279,19.333z"/>
		<path fill="#CCCCCC" d="M178.702,19.333v24.438h-5.534V19.333H178.702z"/>
		<path fill="#CCCCCC" d="M183.484,19.66c2.029-0.327,4.687-0.508,7.479-0.508c4.632,0,7.647,0.834,9.998,2.607
			c2.544,1.884,4.129,4.895,4.129,9.212c0,4.679-1.696,7.903-4.06,9.894c-2.572,2.142-6.479,3.155-11.264,3.155
			c-2.863,0-4.895-0.181-6.285-0.36v-24H183.484z M189.047,39.599c0.459,0.111,1.225,0.111,1.918,0.111
			c5.006,0.027,8.26-2.727,8.26-8.559c0.027-5.074-2.947-7.759-7.688-7.759c-1.237,0-2.029,0.104-2.488,0.216L189.047,39.599
			L189.047,39.599z"/>
		<path fill="#CCCCCC" d="M223.251,33.426h-8.996v5.812h10.039v4.533h-15.587V19.333h15.087v4.533h-9.539v5.075h8.996V33.426
			L223.251,33.426z"/>
		<path fill="#CCCCCC" d="M233.764,37.486l-1.752,6.285h-5.729l7.479-24.438h7.244l7.578,24.438h-5.951l-1.891-6.285H233.764z
			 M239.95,33.371l-1.517-5.193c-0.443-1.445-0.875-3.261-1.236-4.714h-0.069c-0.36,1.453-0.724,3.303-1.126,4.714l-1.445,5.193
			H239.95z"/>
	</g>
	<g>
		<path fill="#BBBBBB" d="M1.317,25.368c0,3.649,2.969,6.625,6.625,6.625c3.649,0,6.625-2.977,6.625-6.625
			c0-3.657-2.976-6.626-6.625-6.626C4.286,18.742,1.317,21.711,1.317,25.368z"/>
		<path fill="#CCCCCC" d="M40.84,2.099c-3.636,0-5.805,2.934-5.805,7.85c0,0,0,9.462,0,15.461c0,2.46,0,4.311,0,4.609
			c0,4.324,0,10.096,0,10.096c0,4.908,2.162,7.842,5.805,7.842c3.636,0,5.806-2.934,5.806-7.842c0,0,0-5.771,0-10.096l0,0
			c0-0.277,0-1.855,0-4.011c0-0.194,0-0.396,0-0.599c0-5.999,0-15.461,0-15.461C46.646,5.032,44.476,2.099,40.84,2.099z"/>
		<path fill="#CCCCCC" d="M30.669,2.739c-0.007,0-0.021,0-0.027,0c-0.528,0-3.323,0-6.056,0c-2.579,0-5.082,0-5.534,0l0,0H7.136
			c-0.007,0-0.021,0-0.028,0c-0.007,0-0.014,0-0.028,0H6.872v0.014C3.786,2.879,1.317,5.409,1.317,8.53
			c0,3.122,2.468,5.659,5.555,5.784v0.042h12.18c0,6.257,0,6.479,0,10.547c0,0.09-0.007,0.166-0.007,0.257h0.014
			c0,0.069,0.007,0.139,0.007,0.209c0,6.125-4.984,11.117-11.116,11.117c-0.097,0-0.202-0.015-0.299-0.015l-0.035,0.041
			c-0.16-0.026-0.327-0.026-0.494-0.026c-3.205,0-5.798,2.586-5.798,5.783c0,3.198,2.593,5.799,5.798,5.799
			c0.174,0,0.348-0.015,0.514-0.027l0.014,0.014c0.097,0,0.202,0.014,0.299,0.014c12.514,0,22.72-10.19,22.72-22.698
			c0-0.062,0-0.133,0-0.209l0,0c0-0.493,0-1.863,0-3.72c0-0.014,0-0.027,0-0.041C30.669,21.399,30.669,3.253,30.669,2.739z"/>
	</g>
</g>
</svg>
