<?xml version="1.0" encoding="utf-8"?>
<!-- Generator: Adobe Illustrator 15.1.0, SVG Export Plug-In . SVG Version: 6.00 Build 0)  -->
<!DOCTYPE svg PUBLIC "-//W3C//DTD SVG 1.1//EN" "http://www.w3.org/Graphics/SVG/1.1/DTD/svg11.dtd">
<svg version="1.1" id="Layer_1" xmlns="http://www.w3.org/2000/svg" xmlns:xlink="http://www.w3.org/1999/xlink" x="0px" y="0px"
	 width="561.505px" height="102.946px" viewBox="4.5 3.027 561.505 102.946" enable-background="new 4.5 3.027 561.505 102.946"
	 xml:space="preserve">
<g>
	<g>
		<path fill="#CCCCCC" d="M188.696,92.031L173.89,33.588h7.952l6.955,29.579c1.763,7.286,3.293,14.558,4.358,20.214h0.166
			c0.965-5.79,2.762-12.744,4.758-20.297l7.785-29.496h7.92l7.12,29.663c1.631,6.938,3.193,13.875,4.06,20.062h0.198
			c1.198-6.453,2.862-12.94,4.659-20.229l7.72-29.496h7.718L228.69,92.031h-7.887l-7.353-30.426
			c-1.83-7.456-3.062-13.179-3.826-19.083h-0.167c-1.064,5.823-2.362,11.546-4.524,19.083l-8.318,30.426H188.696L188.696,92.031z"/>
		<path fill="#CCCCCC" d="M253.644,72.467c0.2,10.314,6.787,14.573,14.44,14.573c5.457,0,8.718-0.966,11.579-2.194l1.331,5.455
			c-2.695,1.23-7.32,2.629-13.975,2.629c-12.91,0-20.628-8.518-20.628-21.195c0-12.643,7.452-22.625,19.696-22.625
			c13.675,0,17.302,12.062,17.302,19.781c0,1.563-0.133,2.778-0.233,3.577L253.644,72.467L253.644,72.467z M276.036,66.994
			c0.101-4.857-1.996-12.411-10.581-12.411c-7.718,0-11.079,7.12-11.711,12.411H276.036z"/>
		<path fill="#CCCCCC" d="M292.505,92.031c0.199-2.861,0.334-7.086,0.334-10.813v-50.74h7.586v26.368h0.133
			c2.729-4.691,7.586-7.736,14.31-7.736c10.447,0,17.801,8.684,17.701,21.428c0,15.006-9.451,22.491-18.802,22.491
			c-6.088,0-10.944-2.361-14.073-7.918h-0.267l-0.332,6.92H292.505L292.505,92.031z M300.425,75.229
			c0,0.965,0.133,1.897,0.332,2.763c1.465,5.321,5.892,8.948,11.445,8.948c7.985,0,12.744-6.485,12.744-16.137
			c0-8.417-4.357-15.604-12.479-15.604c-5.188,0-10.047,3.544-11.645,9.365c-0.168,0.865-0.4,1.896-0.4,3.11v7.554H300.425
			L300.425,75.229z"/>
		<path fill="#CCCCCC" d="M342.015,78.456c3.562,1.797,9.052,3.626,14.642,3.626c6.09,0,9.315-2.495,9.315-6.354
			c0-3.627-2.795-5.707-9.813-8.221c-9.715-3.377-16.037-8.767-16.037-17.268c0-9.965,8.316-17.601,22.125-17.601
			c6.588,0,11.447,1.397,14.906,2.944l-2.931,10.681c-2.36-1.132-6.52-2.779-12.241-2.779c-5.726,0-8.521,2.596-8.521,5.623
			c0,3.743,3.328,5.39,10.848,8.25c10.314,3.812,15.175,9.185,15.175,17.437c0,9.783-7.521,18.134-23.593,18.134
			c-6.688,0-13.274-1.763-16.534-3.56L342.015,78.456z"/>
		<path fill="#CCCCCC" d="M402.304,37.498v12.145h9.451v9.716h-9.451V74.73c0,5.09,1.199,7.453,5.191,7.453
			c1.664,0,2.928-0.199,3.926-0.367l0.066,9.981c-1.73,0.698-4.857,1.132-8.584,1.132c-4.261,0-7.818-1.498-9.914-3.66
			c-2.396-2.494-3.627-6.588-3.627-12.543V59.359h-5.623v-9.716h5.623v-9.2L402.304,37.498z"/>
		<path fill="#CCCCCC" d="M460.832,70.371c0,15.538-11.014,22.658-22.393,22.658c-12.38,0-21.929-8.186-21.929-21.875
			c0-13.709,9.019-22.459,22.625-22.459C452.148,48.694,460.832,57.628,460.832,70.371z M430.121,70.803
			c0,7.288,3.061,12.744,8.684,12.744c5.093,0,8.418-5.09,8.418-12.744c0-6.32-2.461-12.742-8.418-12.742
			C432.449,58.061,430.121,64.564,430.121,70.803z"/>
		<path fill="#CCCCCC" d="M468.984,63.6c0-6.238-0.201-10.312-0.367-13.958h11.348l0.465,7.803h0.332
			c2.197-6.155,7.39-8.75,11.447-8.75c1.197,0,1.828,0,2.793,0.167v12.412c-0.965-0.185-2.096-0.35-3.559-0.35
			c-4.859,0-8.152,2.596-9.021,6.672c-0.199,0.881-0.264,1.912-0.264,2.959v21.512h-13.178V63.6H468.984z"/>
		<path fill="#CCCCCC" d="M501.923,63.168c0-5.29-0.166-9.799-0.334-13.525h11.08l0.633,5.722h0.232
			c1.83-2.694,5.557-6.688,12.844-6.688c5.49,0,9.814,2.778,11.611,7.203h0.201c1.528-2.163,3.459-3.893,5.454-5.107
			c2.328-1.397,4.927-2.096,8.054-2.096c8.149,0,14.307,5.739,14.307,18.399v24.953h-12.844V68.975c0-6.156-1.996-9.699-6.221-9.699
			c-3.029,0-5.226,2.08-6.091,4.593c-0.334,0.946-0.532,2.345-0.532,3.377v24.787h-12.812v-23.74c0-5.373-1.895-9.017-6.088-9.017
			c-3.359,0-5.357,2.595-6.121,4.756c-0.467,1.05-0.533,2.265-0.533,3.296v24.704H501.92V63.168H501.923z"/>
	</g>
	<g>
		<g>
			<path fill="#CCCCCC" d="M76.303,102.979c1.264-1.563,2.728-3.295,4.458-5.291l0.864-0.998c1.098-1.265,1.996-2.229,2.862-3.193
				c1.729-1.863,3.228-3.46,5.955-7.188c2.695-3.627,4.426-6.39,4.126-11.08c-0.133-2.43-0.233-4.076-1.83-6.022
				c-0.931-1.164-2.695-2.878-4.559-4.674c-2.029-1.947-3.759-3.812-6.155-6.289c-2.395-2.479-5.457-8.8-5.457-8.8
				c-0.931-2.096-2.661-6.438-3.127-10.481L66.453,3.027H46.489l-9.781,45.317l-8.65-45.317H4.5l21.228,102.946h19.863l9.949-44.568
				l8.751,44.568h9.216L76.303,102.979z"/>
		</g>
		<path fill="#BBBBBB" d="M117.826,9.2c2.096-2.413,3.826-4.376,5.224-6.156H91.407c-1.896,2.412-5.723,7.037-7.919,11.146
			c-2.861,5.457-5.257,9.533-5.457,19.564l0.068,3.227c0,4.775,3.46,11.795,3.46,11.795c0.531,1.248,2.328,3.877,3.46,5.474l0,0
			c0.366,0.516,0.599,0.832,0.599,0.832c3.428,3.908,8.584,8.285,10.881,11.096c2.661,3.278,2.728,6.355,2.894,8.752
			c0.366,6.521-2.262,10.413-5.058,14.239c-4.258,5.79-5.788,6.854-9.05,10.647c-2.096,2.429-3.792,4.392-5.224,6.154h32.707
			c1.93-2.463,4.658-7.021,6.854-11.146c2.86-5.456,5.257-9.516,5.489-19.563l-0.1-3.229c0-4.773-3.428-11.796-3.428-11.796
			c-0.531-1.247-2.362-3.857-3.493-5.472h0.033c-0.365-0.499-0.632-0.832-0.632-0.832c-3.394-3.926-8.584-8.285-10.847-11.096
			c-2.662-3.294-2.729-6.372-2.896-8.768c-0.365-6.488,2.23-10.398,5.059-14.241C113.035,14.058,114.565,12.976,117.826,9.2z"/>
	</g>
</g>
</svg>
